<svg xmlns="http://www.w3.org/2000/svg" viewBox="0 0 30 30"><defs><style>.cls-1{fill:#fff;}.cls-2{fill:#231f20;}.cls-3{fill:#b3b3b3;}</style></defs><title>Recurso 17</title><g id="Capa_2" data-name="Capa 2"><g id="Text_Hover" data-name="Text Hover"><circle class="cls-1" cx="15" cy="15" r="15"/><path class="cls-2" d="M15,2.31A12.69,12.69,0,1,1,2.31,15,12.71,12.71,0,0,1,15,2.31M15,0A15,15,0,1,0,30,15,15,15,0,0,0,15,0Z"/><circle class="cls-2" cx="15" cy="15" r="3.46"/><path class="cls-3" d="M27.69,15A12.69,12.69,0,0,0,4.95,7.26a12.69,12.69,0,0,1,17.8,17.8A12.67,12.67,0,0,0,27.69,15Z"/></g></g></svg>