<svg xmlns="http://www.w3.org/2000/svg" viewBox="0 0 400 300.78"><defs><style>.cls-1{fill:#fc0;}.cls-2{fill:#fff;}.cls-3{fill:#231f20;}.cls-4{fill:#b3b3b3;}</style></defs><title>Recurso 15</title><g id="Capa_2" data-name="Capa 2"><g id="Imgs"><path class="cls-1" d="M20,0H380a20,20,0,0,1,20,20V225a0,0,0,0,1,0,0H0a0,0,0,0,1,0,0V20A20,20,0,0,1,20,0Z"/><path d="M380,10a10,10,0,0,1,10,10V215H10V20A10,10,0,0,1,20,10H380m0-10H20A20,20,0,0,0,0,20V225H400V20A20,20,0,0,0,380,0Z"/><circle class="cls-2" cx="115" cy="129.04" r="65"/><path class="cls-3" d="M115,74a55,55,0,1,1-55,55,55.06,55.06,0,0,1,55-55m0-10a65,65,0,1,0,65,65,65,65,0,0,0-65-65Z"/><circle class="cls-2" cx="285" cy="129.04" r="65"/><path class="cls-3" d="M285,74a55,55,0,1,1-55,55,55.06,55.06,0,0,1,55-55m0-10a65,65,0,1,0,65,65,65,65,0,0,0-65-65Z"/><circle class="cls-3" cx="115" cy="129.04" r="15"/><circle class="cls-3" cx="285" cy="129.04" r="15"/><path class="cls-4" d="M170,129A55,55,0,0,0,71.44,95.48a55,55,0,0,1,77.12,77.12A54.9,54.9,0,0,0,170,129Z"/><path class="cls-4" d="M340,129a55,55,0,0,0-98.56-33.56,55,55,0,0,1,77.12,77.12A54.9,54.9,0,0,0,340,129Z"/><polygon class="cls-3" points="176.46 88.61 132.96 45.1 123.54 54.53 116.46 47.46 132.96 30.96 183.54 81.54 176.46 88.61"/><polygon class="cls-3" points="223.53 88.61 216.47 81.54 267.04 30.96 283.54 47.46 276.46 54.53 267.04 45.1 223.53 88.61"/><path d="M168.67,69.45h52.66a10,10,0,0,1,10,10v380a10,10,0,0,1-10,10H168.67a0,0,0,0,1,0,0v-400A0,0,0,0,1,168.67,69.45Z" transform="translate(469.45 69.45) rotate(90)"/><path class="cls-2" d="M58.64,269.62c0-10.7,5.81-15.37,16.54-15.37A20.71,20.71,0,0,1,84,256l-1.88,5.14a23.57,23.57,0,0,0-7.1-1.09c-5.26,0-9.19,2.59-9.19,9.11s4.34,9.48,9.73,9.48c.67,0,1.29,0,1.88,0v-9.07h7.1V282.9a24.94,24.94,0,0,1-9.73,1.71C65,284.62,58.64,279.85,58.64,269.62Z"/><path class="cls-2" d="M126.65,269.45H139.1V275H126.65Z"/><path class="cls-2" d="M181.58,254.66h10.36c7.23,0,11,2.59,11,8.15a6.3,6.3,0,0,1-3,5.26v.08a7.45,7.45,0,0,1,5.1,6.94c0,5.39-3.17,9.11-11.87,9.11H181.58Zm9.69,12.12c3.09,0,4.64-.54,4.64-3.17s-1.67-3.51-5-3.51h-2.17v6.68Zm1,11.87c3.76,0,5.64-1,5.64-3.38,0-2.67-2-3.63-6.14-3.63h-3.09v7Z"/><path class="cls-2" d="M246,269.37c0-9.32,6.18-15.17,16.25-15.17,10.74,0,15.37,6.43,15.37,15.25,0,9.4-5.64,15.25-16.17,15.25C251.13,284.7,246,278.85,246,269.37Zm24.4,0c0-5.51-2.55-9.61-8.52-9.61-6.27,0-8.69,4.09-8.69,9.53s2.38,9.78,8.4,9.78C268.13,279.1,270.43,274.93,270.43,269.41Z"/><path class="cls-2" d="M325,260.22H315.7v-5.56h25.65v5.56h-9.27v24H325Z"/></g></g></svg>