<svg xmlns="http://www.w3.org/2000/svg" viewBox="0 0 199.48 150"><defs><style>.cls-1{fill:#c4c4c4;}.cls-2{fill:#fff;}.cls-3{fill:#212121;}.cls-4{fill:#b3b3b3;}</style></defs><title>Recurso 15</title><g id="Capa_2" data-name="Capa 2"><g id="Imgs"><path class="cls-1" d="M10,0H189.48a10,10,0,0,1,10,10V112.21a0,0,0,0,1,0,0H0a0,0,0,0,1,0,0V10A10,10,0,0,1,10,0Z"/><path d="M189.51,5a5,5,0,0,1,5,5v97.25H5V10a5,5,0,0,1,5-5H189.51m0-5H10A10,10,0,0,0,0,10V112.21H199.48V10a10,10,0,0,0-10-10Z"/><circle class="cls-2" cx="57.35" cy="64.35" r="32.42"/><path class="cls-3" d="M57.35,36.92A27.43,27.43,0,1,1,29.92,64.35,27.46,27.46,0,0,1,57.35,36.92m0-5A32.42,32.42,0,1,0,89.77,64.35,32.42,32.42,0,0,0,57.35,31.94Z"/><circle class="cls-2" cx="142.13" cy="64.35" r="32.42"/><path class="cls-3" d="M142.13,36.92A27.43,27.43,0,1,1,114.7,64.35a27.46,27.46,0,0,1,27.43-27.43m0-5a32.42,32.42,0,1,0,32.42,32.42,32.42,32.42,0,0,0-32.42-32.42Z"/><circle class="cls-3" cx="57.35" cy="64.35" r="7.48"/><circle class="cls-3" cx="142.13" cy="64.35" r="7.48"/><path class="cls-4" d="M84.78,64.35A27.42,27.42,0,0,0,35.63,47.61,27.42,27.42,0,0,1,74.09,86.07,27.38,27.38,0,0,0,84.78,64.35Z"/><path class="cls-4" d="M169.56,64.35a27.42,27.42,0,0,0-49.15-16.74,27.42,27.42,0,0,1,38.46,38.46A27.38,27.38,0,0,0,169.56,64.35Z"/><polygon class="cls-3" points="88 44.19 66.31 22.49 61.61 27.19 58.08 23.67 66.31 15.44 91.53 40.66 88 44.19"/><polygon class="cls-3" points="111.48 44.19 107.95 40.66 133.17 15.44 141.4 23.67 137.87 27.19 133.17 22.49 111.48 44.19"/><path d="M84.11,34.64h21.25a10,10,0,0,1,10,10V224.11a10,10,0,0,1-10,10H84.11a0,0,0,0,1,0,0V34.64A0,0,0,0,1,84.11,34.64Z" transform="translate(234.11 34.64) rotate(90)"/><path class="cls-2" d="M29.25,134.46c0-5.33,2.9-7.67,8.25-7.67a10.33,10.33,0,0,1,4.42.9L41,130.25a11.75,11.75,0,0,0-3.54-.54c-2.63,0-4.58,1.29-4.58,4.54S35,139,37.71,139l.94,0v-4.52h3.54v6.65a12.44,12.44,0,0,1-4.85.85C32.43,141.94,29.25,139.56,29.25,134.46Z"/><path class="cls-2" d="M63.16,134.37h6.21v2.77H63.16Z"/><path class="cls-2" d="M90.55,127h5.17c3.6,0,5.48,1.29,5.48,4.06a3.14,3.14,0,0,1-1.48,2.62v0a3.71,3.71,0,0,1,2.54,3.46c0,2.69-1.58,4.54-5.92,4.54H90.55Zm4.83,6c1.54,0,2.31-.27,2.31-1.58s-.83-1.75-2.5-1.75H94.11V133Zm.52,5.92c1.88,0,2.81-.5,2.81-1.69s-1-1.81-3.06-1.81H94.11V139Z"/><path class="cls-2" d="M122.69,134.33c0-4.65,3.08-7.56,8.1-7.56,5.35,0,7.67,3.21,7.67,7.6,0,4.69-2.81,7.6-8.06,7.6S122.69,139.06,122.69,134.33Zm12.17,0c0-2.75-1.27-4.79-4.25-4.79s-4.33,2-4.33,4.75,1.19,4.88,4.19,4.88C133.72,139.19,134.86,137.1,134.86,134.35Z"/><path class="cls-2" d="M162.07,129.77h-4.63V127h12.79v2.77h-4.63v12h-3.54Z"/></g></g></svg>